REM MD5 a1ea3c7fd6e932f1b7a9ab6915d9705d
FILE "Euro Demo 91 (Europe).bin" BINARY
  TRACK 01 MODE2/2352
    INDEX 01 00:00:00
  TRACK 02 AUDIO
    INDEX 00 41:08:46
    INDEX 01 41:10:46
  TRACK 03 AUDIO
    INDEX 00 42:50:36
    INDEX 01 42:52:36
  TRACK 04 AUDIO
    INDEX 00 44:40:62
    INDEX 01 44:42:62
  TRACK 05 AUDIO
    INDEX 00 45:52:58
    INDEX 01 45:54:58
  TRACK 06 AUDIO
    INDEX 00 48:23:51
    INDEX 01 48:25:51
REM LEADOUT 51:27:08
